<?xml version="1.0" encoding="UTF-8" standalone="no"?>
<!-- Created with Inkscape (http://www.inkscape.org/) -->

<svg
   width="20"
   height="20"
   viewBox="0 0 5.2916668 5.2916664"
   version="1.1"
   id="svg861"
   inkscape:version="1.1 (ce6663b3b7, 2021-05-25)"
   sodipodi:docname="karsazcashback_icon.svg"
   inkscape:export-filename="/home/alireza/Downloads/bitmdfsap.png"
   inkscape:export-xdpi="96"
   inkscape:export-ydpi="96"
   xmlns:inkscape="http://www.inkscape.org/namespaces/inkscape"
   xmlns:sodipodi="http://sodipodi.sourceforge.net/DTD/sodipodi-0.dtd"
   xmlns="http://www.w3.org/2000/svg"
   xmlns:svg="http://www.w3.org/2000/svg">
  <sodipodi:namedview
     id="namedview863"
     pagecolor="#ffffff"
     bordercolor="#666666"
     borderopacity="1.0"
     inkscape:pageshadow="2"
     inkscape:pageopacity="1"
     inkscape:pagecheckerboard="0"
     inkscape:document-units="px"
     showgrid="false"
     units="px"
     inkscape:zoom="10.732997"
     inkscape:cx="-4.7051166"
     inkscape:cy="10.947548"
     inkscape:window-width="1920"
     inkscape:window-height="1016"
     inkscape:window-x="0"
     inkscape:window-y="27"
     inkscape:window-maximized="1"
     inkscape:current-layer="layer1"
     width="500px" />
  <defs
     id="defs858" />
  <g
     inkscape:label="Layer 1"
     inkscape:groupmode="layer"
     id="layer1">
    <path
       id="path2307-9"
       style="fill:#a7aaad;fill-opacity:1;stroke-width:1.78107"
       d="M 3.4191575,1.6681207 C 3.6965999,1.5390624 4.0232739,1.5158396 4.3334241,1.6290529 4.9537241,1.8554795 5.2730233,2.5418914 5.0465975,3.1621915 4.8201707,3.7824909 4.1337644,4.1017893 3.5134647,3.875362 3.2033144,3.7621491 2.3903126,3.4653807 2.3903126,3.4653807 c 0,0 0.2967655,-0.8130066 0.4099789,-1.1231567 C 2.9135039,2.0320738 3.1417148,1.7971796 3.4191575,1.6681207 Z M 3.587253,2.029484 c -0.00578,0.00269 -0.011533,0.00543 -0.017245,0.00827 -0.00572,0.00283 -0.011395,0.00572 -0.017041,0.00868 -0.00564,0.00297 -0.011258,0.00599 -0.016833,0.00908 -0.00557,0.0031 -0.011116,0.00626 -0.016619,0.00949 -0.0055,0.00323 -0.01097,0.00652 -0.016396,0.00988 C 3.497699,2.078244 3.492308,2.081674 3.486961,2.085166 3.481611,2.088666 3.476304,2.092216 3.47104,2.09584 3.46578,2.09946 3.460552,2.10315 3.455369,2.106899 3.450189,2.110659 3.445047,2.114469 3.439953,2.11835 3.434853,2.12223 3.429808,2.12617 3.424801,2.130173 c -0.00499,0.004 -0.00996,0.00807 -0.014876,0.012203 -0.0049,0.00413 -0.00978,0.00832 -0.014597,0.012576 C 3.390508,2.159202 3.385738,2.163512 3.38102,2.167888 3.3763,2.172258 3.37162,2.176698 3.367004,2.181196 3.362384,2.185686 3.357814,2.190256 3.3533,2.194868 3.34879,2.199478 3.34432,2.204158 3.339905,2.208891 3.335485,2.213631 3.331135,2.218421 3.326831,2.223274 3.322521,2.228124 3.318281,2.233034 3.314086,2.238 3.309896,2.24296 3.305756,2.24799 3.301678,2.253077 c -0.00407,0.00508 -0.0081,0.010223 -0.012064,0.01542 -0.00396,0.0052 -0.00787,0.010447 -0.01171,0.015754 -0.00385,0.00531 -0.00763,0.010671 -0.01135,0.016091 -0.00372,0.00542 -0.00738,0.010899 -0.010982,0.016427 -0.00359,0.00553 -0.00713,0.011108 -0.010603,0.016746 -0.00347,0.00564 -0.00687,0.01133 -0.010217,0.017077 -0.00334,0.00575 -0.00661,0.011544 -0.00982,0.017394 -0.00321,0.00585 -0.00635,0.011756 -0.00942,0.01771 -0.00307,0.00595 -0.00608,0.011965 -0.00902,0.018024 -0.00294,0.00606 -0.00579,0.012174 -0.00859,0.018336 -0.0028,0.00615 -0.00552,0.012373 -0.00818,0.018638 -0.00265,0.00626 -0.00523,0.012577 -0.00774,0.018942 -0.00251,0.00636 -0.00494,0.01277 -0.0073,0.019231 L 2.9013566,3.2276581 c 0,0 0.5420014,0.197845 0.7487676,0.2733197 0.00647,0.00236 0.01293,0.00463 0.019412,0.00681 0.00649,0.00218 0.012974,0.00428 0.019472,0.00628 0.0065,0.002 0.01301,0.00393 0.019524,0.00576 0.00652,0.00183 0.013031,0.00358 0.019558,0.00523 0.00653,0.00165 0.013058,0.00323 0.019594,0.00471 0.00653,0.00149 0.013076,0.00289 0.019619,0.0042 0.00655,0.00131 0.013086,0.00254 0.019633,0.00368 0.00655,0.00115 0.013096,0.00222 0.019644,0.00318 0.00655,9.713e-4 0.013092,0.00186 0.019638,0.00268 0.00655,8.083e-4 0.013097,0.00154 0.019639,0.00219 0.00655,6.518e-4 0.013083,0.00119 0.019618,0.00169 0.00653,4.868e-4 0.013067,8.8e-4 0.019594,0.00119 0.00653,2.808e-4 0.01305,5.428e-4 0.019566,7.105e-4 0.00652,1.871e-4 0.013024,2.433e-4 0.019526,2.433e-4 0.0065,-1.8e-6 0.01299,-1.436e-4 0.019474,-2.433e-4 0.00649,-1.871e-4 0.012959,-4.304e-4 0.019422,-7.496e-4 0.00647,-2.807e-4 0.012914,-7.366e-4 0.019354,-0.00122 0.00644,-4.867e-4 0.012869,-0.00102 0.019285,-0.00169 0.00641,-6.376e-4 0.012822,-0.00134 0.01921,-0.00215 0.00639,-7.887e-4 0.012758,-0.00166 0.019115,-0.00261 0.00635,-9.517e-4 0.012695,-0.00198 0.019018,-0.00307 0.00632,-0.0011 0.012627,-0.00227 0.018917,-0.00352 0.00628,-0.00126 0.012554,-0.00258 0.018801,-0.00396 0.00624,-0.00141 0.012484,-0.00287 0.01869,-0.00442 0.0062,-0.00154 0.012391,-0.00317 0.018555,-0.00486 0.00616,-0.00169 0.012306,-0.00345 0.018422,-0.0053 0.00612,-0.00183 0.012207,-0.00376 0.018274,-0.00574 0.00606,-0.00198 0.012107,-0.00404 0.018124,-0.00617 0.00602,-0.00212 0.012007,-0.00432 0.017965,-0.00659 0.00596,-0.00227 0.011891,-0.00461 0.017792,-0.00702 0.0059,-0.00241 0.011775,-0.00489 0.017617,-0.00744 0.00583,-0.00256 0.011658,-0.00516 0.017439,-0.00785 0.00578,-0.00269 0.011529,-0.00544 0.017243,-0.00828 0.00572,-0.00282 0.011396,-0.00572 0.017042,-0.00868 0.00564,-0.00297 0.01126,-0.00599 0.016834,-0.00909 0.00557,-0.0031 0.011115,-0.00626 0.016618,-0.00949 0.0055,-0.00323 0.01097,-0.00652 0.016394,-0.00989 0.00542,-0.00336 0.01081,-0.00679 0.016158,-0.010284 0.00535,-0.0035 0.010657,-0.00705 0.015921,-0.010675 0.00526,-0.00362 0.010488,-0.00731 0.015671,-0.011061 0.00518,-0.00376 0.010322,-0.00757 0.015416,-0.011451 0.0051,-0.00389 0.010145,-0.00782 0.01515,-0.011823 0.00501,-0.004 0.00996,-0.00807 0.014875,-0.012202 0.0049,-0.00412 0.00978,-0.00832 0.014598,-0.01257 0.00482,-0.00425 0.00959,-0.00857 0.014307,-0.012941 0.00472,-0.00437 0.0094,-0.00881 0.014016,-0.013309 0.00462,-0.00449 0.00919,-0.00905 0.013702,-0.013672 0.00451,-0.00462 0.00898,-0.00929 0.013395,-0.014023 0.00441,-0.00474 0.00877,-0.00953 0.013079,-0.014378 0.00431,-0.00485 0.00855,-0.00976 0.012741,-0.014732 0.0042,-0.00496 0.00833,-0.00999 0.012408,-0.015077 0.00407,-0.00508 0.0081,-0.010223 0.012064,-0.015418 0.00396,-0.0052 0.00787,-0.010447 0.01171,-0.015757 0.00385,-0.00531 0.00763,-0.010669 0.01135,-0.016091 0.00372,-0.00541 0.00738,-0.010899 0.010982,-0.016426 0.00359,-0.00553 0.00713,-0.011108 0.010603,-0.016746 0.00347,-0.00563 0.00687,-0.01133 0.010217,-0.017075 0.00334,-0.00575 0.00661,-0.011546 0.00983,-0.017396 0.00321,-0.00585 0.00635,-0.011756 0.00943,-0.01771 0.00307,-0.00595 0.00608,-0.011964 0.00902,-0.018023 0.00294,-0.00606 0.00579,-0.012167 0.0086,-0.018328 0.0028,-0.00615 0.00552,-0.012378 0.00817,-0.018643 0.00265,-0.00626 0.00523,-0.012577 0.00774,-0.018942 0.00251,-0.00636 0.00494,-0.012769 0.0073,-0.019231 0.00236,-0.00647 0.00463,-0.012938 0.00681,-0.01942 0.00218,-0.00649 0.00428,-0.012969 0.00628,-0.01947 0.002,-0.0065 0.00393,-0.013005 0.00576,-0.01952 0.00183,-0.00652 0.00357,-0.013037 0.00523,-0.019564 0.00165,-0.00653 0.00323,-0.013054 0.00471,-0.019588 0.00147,-0.00653 0.00289,-0.013081 0.00421,-0.019623 0.00131,-0.00655 0.00254,-0.013084 0.00368,-0.019631 0.00115,-0.00655 0.00222,-0.013097 0.00318,-0.019642 9.712e-4,-0.00655 0.00186,-0.013099 0.00268,-0.019646 8.083e-4,-0.00655 0.00154,-0.013089 0.00218,-0.01963 6.377e-4,-0.00655 0.00119,-0.013089 0.00169,-0.019624 4.866e-4,-0.00653 8.8e-4,-0.013069 0.00119,-0.019598 2.806e-4,-0.00653 5.427e-4,-0.013043 7.105e-4,-0.019558 1.871e-4,-0.00652 2.432e-4,-0.013024 2.432e-4,-0.019525 -9e-7,-0.0065 -9.6e-5,-0.012998 -2.432e-4,-0.019481 -1.872e-4,-0.00649 -4.305e-4,-0.012953 -7.366e-4,-0.019416 -2.807e-4,-0.00647 -7.366e-4,-0.012921 -0.00122,-0.019361 -4.866e-4,-0.00644 -0.00104,-0.012867 -0.00169,-0.019281 -6.377e-4,-0.00642 -0.00134,-0.012817 -0.00214,-0.019204 -7.887e-4,-0.00639 -0.00166,-0.012758 -0.00261,-0.019115 -9.517e-4,-0.00635 -0.00197,-0.012697 -0.00306,-0.019022 -0.0011,-0.00632 -0.00227,-0.012631 -0.00353,-0.018918 -0.00126,-0.00628 -0.00258,-0.012557 -0.00396,-0.018805 -0.00141,-0.00624 -0.00288,-0.012474 -0.00442,-0.018682 -0.00154,-0.00621 -0.00317,-0.012398 -0.00486,-0.018561 -0.00169,-0.00616 -0.00345,-0.0123 -0.00529,-0.018417 -0.00183,-0.00612 -0.00376,-0.012212 -0.00574,-0.018277 -0.00198,-0.00606 -0.00403,-0.01211 -0.00616,-0.018126 -0.00211,-0.00602 -0.00433,-0.011998 -0.00659,-0.017959 -0.00227,-0.00596 -0.00461,-0.011898 -0.00702,-0.0178 -0.00241,-0.0059 -0.00489,-0.011775 -0.00744,-0.017617 -0.00255,-0.00583 -0.00517,-0.01165 -0.00786,-0.017431 -0.00269,-0.00578 -0.00546,-0.011526 -0.00827,-0.017245 -0.00282,-0.0057 -0.00572,-0.011396 -0.00868,-0.017042 -0.00297,-0.00564 -0.006,-0.011261 -0.00909,-0.016836 -0.0031,-0.00557 -0.00625,-0.011114 -0.00948,-0.016615 -0.00323,-0.0055 -0.00653,-0.010968 -0.00989,-0.016393 -0.00336,-0.00542 -0.00679,-0.010816 -0.010285,-0.016163 -0.0035,-0.00535 -0.00705,-0.010652 -0.010673,-0.015915 -0.00362,-0.00526 -0.00731,-0.010494 -0.011062,-0.015677 -0.00376,-0.00518 -0.00757,-0.010317 -0.011443,-0.015414 -0.00388,-0.0051 -0.00782,-0.010143 -0.011829,-0.015149 -0.004,-0.00499 -0.00807,-0.00996 -0.012197,-0.014877 -0.00413,-0.0049 -0.00832,-0.00978 -0.012576,-0.014603 -0.00425,-0.00482 -0.00857,-0.00959 -0.012941,-0.014307 -0.00437,-0.00472 -0.00881,-0.00939 -0.013307,-0.014011 -0.00449,-0.00462 -0.00905,-0.00919 -0.013666,-0.013705 -0.00462,-0.00451 -0.0093,-0.00899 -0.014032,-0.013397 -0.00474,-0.00441 -0.00952,-0.00877 -0.014374,-0.013071 -0.00485,-0.00431 -0.00976,-0.00855 -0.014733,-0.012747 -0.00496,-0.00419 -0.00999,-0.00832 -0.015073,-0.012403 -0.00508,-0.00408 -0.010217,-0.0081 -0.015412,-0.012067 -0.0052,-0.00396 -0.010452,-0.00786 -0.015761,-0.011706 -0.00531,-0.00385 -0.010669,-0.00763 -0.01609,-0.01135 -0.00541,-0.00372 -0.010893,-0.00738 -0.016422,-0.010984 -0.00553,-0.00359 -0.011118,-0.00713 -0.016754,-0.010605 -0.00564,-0.00347 -0.01133,-0.00687 -0.017076,-0.010217 -0.00575,-0.00334 -0.011538,-0.00661 -0.017389,-0.00983 -0.00585,-0.00321 -0.011759,-0.00634 -0.017714,-0.00942 -0.00595,-0.00307 -0.011964,-0.00608 -0.018024,-0.00902 -0.00606,-0.00294 -0.01217,-0.0058 -0.018332,-0.0086 -0.00615,-0.0028 -0.012376,-0.00551 -0.018639,-0.00817 -0.00626,-0.00265 -0.012573,-0.00523 -0.018935,-0.00774 -0.00636,-0.00251 -0.012775,-0.00494 -0.019237,-0.0073 -0.00647,-0.00236 -0.012932,-0.00463 -0.019414,-0.00682 -0.00649,-0.00218 -0.012973,-0.00428 -0.019472,-0.00628 -0.0065,-0.002 -0.013008,-0.00392 -0.019522,-0.00575 -0.00652,-0.00183 -0.013035,-0.00358 -0.019561,-0.00523 -0.00653,-0.00166 -0.013058,-0.00323 -0.019595,-0.00471 -0.00653,-0.00147 -0.013076,-0.00289 -0.019618,-0.0042 -0.00655,-0.00131 -0.013089,-0.00254 -0.019633,-0.00369 -0.00655,-0.00115 -0.013094,-0.00221 -0.019642,-0.00318 -0.00655,-9.713e-4 -0.013093,-0.00186 -0.019639,-0.00268 -0.00655,-8.083e-4 -0.013096,-0.00154 -0.019639,-0.00219 -0.00655,-6.376e-4 -0.013083,-0.00119 -0.019618,-0.00169 -0.00653,-4.866e-4 -0.013067,-8.8e-4 -0.019594,-0.00119 -0.00653,-3.181e-4 -0.013051,-5.613e-4 -0.019566,-7.105e-4 -0.00652,-1.629e-4 -0.013024,-2.245e-4 -0.019526,-2.245e-4 -0.0065,6e-6 -0.012989,8.14e-5 -0.019472,2.808e-4 -0.00649,1.628e-4 -0.012961,4.117e-4 -0.019424,7.365e-4 -0.00647,3.181e-4 -0.012914,7.366e-4 -0.019355,0.00122 -0.00644,4.865e-4 -0.012869,0.00102 -0.019285,0.00166 -0.00641,6.376e-4 -0.012822,0.00134 -0.01921,0.00215 -0.00639,7.888e-4 -0.012755,0.00166 -0.019114,0.00261 -0.00635,9.517e-4 -0.012697,0.00196 -0.019021,0.00306 -0.00632,0.0011 -0.012629,0.00227 -0.018916,0.00352 -0.00628,0.00126 -0.012554,0.00259 -0.018802,0.00397 -0.00624,0.00141 -0.012481,0.00287 -0.018689,0.00442 -0.00621,0.00155 -0.012392,0.00317 -0.018555,0.00486 -0.00616,0.00169 -0.012306,0.00345 -0.018422,0.0053 -0.00612,0.00183 -0.012206,0.00376 -0.018274,0.00574 -0.00606,0.00198 -0.01211,0.00405 -0.018125,0.00617 -0.00602,0.00212 -0.012007,0.00433 -0.017965,0.00659 -0.00596,0.00227 -0.011891,0.00461 -0.017793,0.00702 -0.00589,0.00241 -0.011774,0.00489 -0.017617,0.00744 -0.00583,0.00255 -0.011656,0.00517 -0.017435,0.00786 z" />
    <path
       id="path2616-1"
       style="fill:#a7aaad;fill-opacity:1;stroke-width:1.40843"
       d="M 1.2943839,1.2652587 A 0.68979268,0.68979268 0 0 0 0.60459175,1.9550512 0.68979268,0.68979268 0 0 0 1.2943839,2.6448444 0.68979268,0.68979268 0 0 0 1.9841769,1.9550512 0.68979268,0.68979268 0 0 0 1.2943839,1.2652587 Z m 0,0.3985468 a 0.29124581,0.29124581 0 0 1 0.0075,8.16e-5 0.29124581,0.29124581 0 0 1 0.0075,2.807e-4 0.29124581,0.29124581 0 0 1 0.00748,4.867e-4 0.29124581,0.29124581 0 0 1 0.00747,6.779e-4 0.29124581,0.29124581 0 0 1 0.00745,8.67e-4 0.29124581,0.29124581 0 0 1 0.00742,0.00106 0.29124581,0.29124581 0 0 1 0.00739,0.00126 0.29124581,0.29124581 0 0 1 0.00736,0.00143 0.29124581,0.29124581 0 0 1 0.00732,0.00162 0.29124581,0.29124581 0 0 1 0.00728,0.00181 0.29124581,0.29124581 0 0 1 0.00723,0.002 0.29124581,0.29124581 0 0 1 0.00717,0.00219 0.29124581,0.29124581 0 0 1 0.00711,0.00237 0.29124581,0.29124581 0 0 1 0.00705,0.00255 0.29124581,0.29124581 0 0 1 0.00698,0.00274 0.29124581,0.29124581 0 0 1 0.00691,0.00291 0.29124581,0.29124581 0 0 1 0.00683,0.00308 0.29124581,0.29124581 0 0 1 0.00675,0.00327 0.29124581,0.29124581 0 0 1 0.00667,0.00344 0.29124581,0.29124581 0 0 1 0.00657,0.0036 0.29124581,0.29124581 0 0 1 0.00648,0.00378 0.29124581,0.29124581 0 0 1 0.00639,0.00394 0.29124581,0.29124581 0 0 1 0.00627,0.00411 0.29124581,0.29124581 0 0 1 0.00616,0.00426 0.29124581,0.29124581 0 0 1 0.00605,0.00442 0.29124581,0.29124581 0 0 1 0.00594,0.00459 0.29124581,0.29124581 0 0 1 0.00581,0.00473 0.29124581,0.29124581 0 0 1 0.00569,0.00488 0.29124581,0.29124581 0 0 1 0.00557,0.00501 0.29124581,0.29124581 0 0 1 0.00543,0.00516 0.29124581,0.29124581 0 0 1 0.0053,0.00531 0.29124581,0.29124581 0 0 1 0.00516,0.00543 0.29124581,0.29124581 0 0 1 0.00503,0.00557 0.29124581,0.29124581 0 0 1 0.00487,0.00569 0.29124581,0.29124581 0 0 1 0.00473,0.00581 0.29124581,0.29124581 0 0 1 0.00459,0.00594 0.29124581,0.29124581 0 0 1 0.00443,0.00606 0.29124581,0.29124581 0 0 1 0.00426,0.00616 0.29124581,0.29124581 0 0 1 0.00411,0.00628 0.29124581,0.29124581 0 0 1 0.00394,0.00638 0.29124581,0.29124581 0 0 1 0.00379,0.00648 0.29124581,0.29124581 0 0 1 0.0036,0.00657 0.29124581,0.29124581 0 0 1 0.00344,0.00667 0.29124581,0.29124581 0 0 1 0.00327,0.00675 0.29124581,0.29124581 0 0 1 0.00308,0.00684 0.29124581,0.29124581 0 0 1 0.00291,0.00691 0.29124581,0.29124581 0 0 1 0.00274,0.00698 0.29124581,0.29124581 0 0 1 0.00256,0.00705 0.29124581,0.29124581 0 0 1 0.00237,0.00711 0.29124581,0.29124581 0 0 1 0.00219,0.00717 0.29124581,0.29124581 0 0 1 0.002,0.00722 0.29124581,0.29124581 0 0 1 0.00181,0.00728 0.29124581,0.29124581 0 0 1 0.00162,0.00731 0.29124581,0.29124581 0 0 1 0.00143,0.00736 0.29124581,0.29124581 0 0 1 0.00126,0.00739 0.29124581,0.29124581 0 0 1 0.00106,0.00742 0.29124581,0.29124581 0 0 1 8.669e-4,0.00745 0.29124581,0.29124581 0 0 1 6.779e-4,0.00747 0.29124581,0.29124581 0 0 1 4.867e-4,0.00748 0.29124581,0.29124581 0 0 1 2.433e-4,0.00749 0.29124581,0.29124581 0 0 1 9.58e-5,0.0075 0.29124581,0.29124581 0 0 1 -8.213e-4,0.021765 0.29124581,0.29124581 0 0 1 -0.00245,0.02164 0.29124581,0.29124581 0 0 1 -0.00405,0.0214 0.29124581,0.29124581 0 0 1 -0.00564,0.021041 0.29124581,0.29124581 0 0 1 -0.0072,0.020556 0.29124581,0.29124581 0 0 1 -0.00871,0.019962 0.29124581,0.29124581 0 0 1 -0.01018,0.019257 0.29124581,0.29124581 0 0 1 -0.011585,0.018443 0.29124581,0.29124581 0 0 1 -0.012933,0.01752 0.29124581,0.29124581 0 0 1 -0.014209,0.016507 0.29124581,0.29124581 0 0 1 -0.015401,0.015401 0.29124581,0.29124581 0 0 1 -0.016507,0.014209 0.29124581,0.29124581 0 0 1 -0.017519,0.012933 0.29124581,0.29124581 0 0 1 -0.018443,0.011585 0.29124581,0.29124581 0 0 1 -0.019258,0.01018 0.29124581,0.29124581 0 0 1 -0.019963,0.00871 0.29124581,0.29124581 0 0 1 -0.020556,0.0072 0.29124581,0.29124581 0 0 1 -0.021041,0.00564 0.29124581,0.29124581 0 0 1 -0.021401,0.00405 0.29124581,0.29124581 0 0 1 -0.02164,0.00245 0.29124581,0.29124581 0 0 1 -0.021766,8.213e-4 0.29124581,0.29124581 0 0 1 -0.021766,-8.213e-4 0.29124581,0.29124581 0 0 1 -0.021647,-0.00245 0.29124581,0.29124581 0 0 1 -0.0214,-0.00405 0.29124581,0.29124581 0 0 1 -0.021034,-0.00564 0.29124581,0.29124581 0 0 1 -0.020543,-0.00718 0.29124581,0.29124581 0 0 1 -0.019964,-0.00871 0.29124581,0.29124581 0 0 1 -0.019257,-0.01018 0.29124581,0.29124581 0 0 1 -0.018443,-0.011585 0.29124581,0.29124581 0 0 1 -0.017525,-0.012933 0.29124581,0.29124581 0 0 1 -0.01651,-0.014209 0.29124581,0.29124581 0 0 1 -0.0154,-0.015401 0.29124581,0.29124581 0 0 1 -0.014209,-0.016507 0.29124581,0.29124581 0 0 1 -0.012934,-0.01752 0.29124581,0.29124581 0 0 1 -0.011587,-0.018443 0.29124581,0.29124581 0 0 1 -0.010172,-0.019257 0.29124581,0.29124581 0 0 1 -0.00871,-0.019963 0.29124581,0.29124581 0 0 1 -0.00719,-0.020556 0.29124581,0.29124581 0 0 1 -0.00564,-0.021041 0.29124581,0.29124581 0 0 1 -0.00404,-0.0214 0.29124581,0.29124581 0 0 1 -0.00245,-0.02164 0.29124581,0.29124581 0 0 1 -8.213e-4,-0.021766 0.29124581,0.29124581 0 0 1 8.213e-4,-0.021765 0.29124581,0.29124581 0 0 1 0.00245,-0.021647 0.29124581,0.29124581 0 0 1 0.00404,-0.0214 0.29124581,0.29124581 0 0 1 0.00564,-0.021035 0.29124581,0.29124581 0 0 1 0.00719,-0.020562 0.29124581,0.29124581 0 0 1 0.00871,-0.019957 0.29124581,0.29124581 0 0 1 0.010172,-0.019257 0.29124581,0.29124581 0 0 1 0.011587,-0.018443 0.29124581,0.29124581 0 0 1 0.012934,-0.017525 0.29124581,0.29124581 0 0 1 0.014209,-0.016507 0.29124581,0.29124581 0 0 1 0.0154,-0.015401 0.29124581,0.29124581 0 0 1 0.01651,-0.014209 0.29124581,0.29124581 0 0 1 0.017525,-0.012934 0.29124581,0.29124581 0 0 1 0.018443,-0.011587 0.29124581,0.29124581 0 0 1 0.019257,-0.010173 0.29124581,0.29124581 0 0 1 0.019964,-0.00871 0.29124581,0.29124581 0 0 1 0.020556,-0.0072 0.29124581,0.29124581 0 0 1 0.021034,-0.00564 0.29124581,0.29124581 0 0 1 0.0214,-0.00405 0.29124581,0.29124581 0 0 1 0.021647,-0.00244 0.29124581,0.29124581 0 0 1 0.021766,-8.083e-4 z" />
    <path
       id="path2616-2-2"
       style="fill:#a7aaad;fill-opacity:1;stroke-width:1.40843"
       d="M 3.2968922,0.15487263 A 0.68979268,0.68979268 0 0 0 2.6071003,0.8446654 0.68979268,0.68979268 0 0 0 3.2968922,1.5344579 0.68979268,0.68979268 0 0 0 3.9866851,0.8446654 0.68979268,0.68979268 0 0 0 3.2968922,0.15487263 Z m 0,0.39854692 a 0.29124581,0.29124581 0 0 1 0.0075,9.094e-5 0.29124581,0.29124581 0 0 1 0.0075,2.8071e-4 0.29124581,0.29124581 0 0 1 0.00748,4.8668e-4 0.29124581,0.29124581 0 0 1 0.00747,6.7596e-4 0.29124581,0.29124581 0 0 1 0.00745,8.6564e-4 0.29124581,0.29124581 0 0 1 0.00742,0.001068 0.29124581,0.29124581 0 0 1 0.00739,0.001257 0.29124581,0.29124581 0 0 1 0.00736,0.001437 0.29124581,0.29124581 0 0 1 0.00732,0.001626 0.29124581,0.29124581 0 0 1 0.00728,0.001815 0.29124581,0.29124581 0 0 1 0.00722,0.002003 0.29124581,0.29124581 0 0 1 0.00717,0.002184 0.29124581,0.29124581 0 0 1 0.00711,0.002373 0.29124581,0.29124581 0 0 1 0.00705,0.002547 0.29124581,0.29124581 0 0 1 0.00698,0.002736 0.29124581,0.29124581 0 0 1 0.00691,0.002911 0.29124581,0.29124581 0 0 1 0.00683,0.003085 0.29124581,0.29124581 0 0 1 0.00675,0.003267 0.29124581,0.29124581 0 0 1 0.00667,0.003441 0.29124581,0.29124581 0 0 1 0.00657,0.003609 0.29124581,0.29124581 0 0 1 0.00648,0.003775 0.29124581,0.29124581 0 0 1 0.00639,0.003943 0.29124581,0.29124581 0 0 1 0.00628,0.004111 0.29124581,0.29124581 0 0 1 0.00616,0.004265 0.29124581,0.29124581 0 0 1 0.00605,0.004417 0.29124581,0.29124581 0 0 1 0.00594,0.004586 0.29124581,0.29124581 0 0 1 0.00581,0.004725 0.29124581,0.29124581 0 0 1 0.0057,0.004878 0.29124581,0.29124581 0 0 1 0.00557,0.005019 0.29124581,0.29124581 0 0 1 0.00543,0.005165 0.29124581,0.29124581 0 0 1 0.00529,0.005311 0.29124581,0.29124581 0 0 1 0.00516,0.005437 0.29124581,0.29124581 0 0 1 0.00503,0.00557 0.29124581,0.29124581 0 0 1 0.00487,0.005695 0.29124581,0.29124581 0 0 1 0.00473,0.005821 0.29124581,0.29124581 0 0 1 0.00459,0.00594 0.29124581,0.29124581 0 0 1 0.00443,0.006058 0.29124581,0.29124581 0 0 1 0.00426,0.006162 0.29124581,0.29124581 0 0 1 0.00411,0.006282 0.29124581,0.29124581 0 0 1 0.00394,0.006382 0.29124581,0.29124581 0 0 1 0.00379,0.006475 0.29124581,0.29124581 0 0 1 0.0036,0.006574 0.29124581,0.29124581 0 0 1 0.00344,0.006665 0.29124581,0.29124581 0 0 1 0.00327,0.006749 0.29124581,0.29124581 0 0 1 0.00308,0.00684 0.29124581,0.29124581 0 0 1 0.00292,0.006909 0.29124581,0.29124581 0 0 1 0.00274,0.006982 0.29124581,0.29124581 0 0 1 0.00256,0.007051 0.29124581,0.29124581 0 0 1 0.00237,0.007112 0.29124581,0.29124581 0 0 1 0.00219,0.007172 0.29124581,0.29124581 0 0 1 0.002,0.007224 0.29124581,0.29124581 0 0 1 0.00181,0.007278 0.29124581,0.29124581 0 0 1 0.00162,0.007315 0.29124581,0.29124581 0 0 1 0.00143,0.007361 0.29124581,0.29124581 0 0 1 0.00126,0.007391 0.29124581,0.29124581 0 0 1 0.00106,0.007422 0.29124581,0.29124581 0 0 1 8.669e-4,0.00745 0.29124581,0.29124581 0 0 1 6.779e-4,0.007475 0.29124581,0.29124581 0 0 1 4.867e-4,0.007482 0.29124581,0.29124581 0 0 1 2.433e-4,0.00749 0.29124581,0.29124581 0 0 1 9.59e-5,0.007505 0.29124581,0.29124581 0 0 1 -8.213e-4,0.0217655 0.29124581,0.29124581 0 0 1 -0.00245,0.0216397 0.29124581,0.29124581 0 0 1 -0.00405,0.0213998 0.29124581,0.29124581 0 0 1 -0.00563,0.0210413 0.29124581,0.29124581 0 0 1 -0.0072,0.0205563 0.29124581,0.29124581 0 0 1 -0.00871,0.0199638 0.29124581,0.29124581 0 0 1 -0.01018,0.0192572 0.29124581,0.29124581 0 0 1 -0.011585,0.0184431 0.29124581,0.29124581 0 0 1 -0.012934,0.01752 0.29124581,0.29124581 0 0 1 -0.014208,0.01651 0.29124581,0.29124581 0 0 1 -0.015401,0.0154 0.29124581,0.29124581 0 0 1 -0.016509,0.014209 0.29124581,0.29124581 0 0 1 -0.01752,0.012932 0.29124581,0.29124581 0 0 1 -0.018443,0.011587 0.29124581,0.29124581 0 0 1 -0.019257,0.01018 0.29124581,0.29124581 0 0 1 -0.019964,0.00871 0.29124581,0.29124581 0 0 1 -0.020556,0.0072 0.29124581,0.29124581 0 0 1 -0.021041,0.00564 0.29124581,0.29124581 0 0 1 -0.0214,0.00405 0.29124581,0.29124581 0 0 1 -0.02164,0.00245 0.29124581,0.29124581 0 0 1 -0.021766,8.082e-4 0.29124581,0.29124581 0 0 1 -0.021766,-8.082e-4 0.29124581,0.29124581 0 0 1 -0.021647,-0.00245 0.29124581,0.29124581 0 0 1 -0.0214,-0.00405 0.29124581,0.29124581 0 0 1 -0.021035,-0.00564 0.29124581,0.29124581 0 0 1 -0.020555,-0.0072 0.29124581,0.29124581 0 0 1 -0.019919,-0.00871 0.29124581,0.29124581 0 0 1 -0.019258,-0.01018 0.29124581,0.29124581 0 0 1 -0.018443,-0.011587 0.29124581,0.29124581 0 0 1 -0.017525,-0.012932 0.29124581,0.29124581 0 0 1 -0.01651,-0.014208 0.29124581,0.29124581 0 0 1 -0.015401,-0.015401 0.29124581,0.29124581 0 0 1 -0.014207,-0.01651 0.29124581,0.29124581 0 0 1 -0.012932,-0.01752 0.29124581,0.29124581 0 0 1 -0.011587,-0.0184425 0.29124581,0.29124581 0 0 1 -0.010173,-0.0192572 0.29124581,0.29124581 0 0 1 -0.00871,-0.0199632 0.29124581,0.29124581 0 0 1 -0.0072,-0.0205563 0.29124581,0.29124581 0 0 1 -0.00564,-0.0210413 0.29124581,0.29124581 0 0 1 -0.00405,-0.0214005 0.29124581,0.29124581 0 0 1 -0.00245,-0.021639 0.29124581,0.29124581 0 0 1 -8.213e-4,-0.0217655 0.29124581,0.29124581 0 0 1 8.213e-4,-0.0217655 0.29124581,0.29124581 0 0 1 0.00245,-0.0216462 0.29124581,0.29124581 0 0 1 0.00405,-0.0214005 0.29124581,0.29124581 0 0 1 0.00564,-0.0210342 0.29124581,0.29124581 0 0 1 0.0072,-0.0205622 0.29124581,0.29124581 0 0 1 0.00871,-0.019958 0.29124581,0.29124581 0 0 1 0.010173,-0.0192572 0.29124581,0.29124581 0 0 1 0.011587,-0.0184426 0.29124581,0.29124581 0 0 1 0.012932,-0.0175276 0.29124581,0.29124581 0 0 1 0.014208,-0.0165073 0.29124581,0.29124581 0 0 1 0.015401,-0.015401 0.29124581,0.29124581 0 0 1 0.01651,-0.0142089 0.29124581,0.29124581 0 0 1 0.017525,-0.0129323 0.29124581,0.29124581 0 0 1 0.018443,-0.0115866 0.29124581,0.29124581 0 0 1 0.019258,-0.010174 0.29124581,0.29124581 0 0 1 0.019964,-0.008712 0.29124581,0.29124581 0 0 1 0.020554,-0.007187 0.29124581,0.29124581 0 0 1 0.021035,-0.005646 0.29124581,0.29124581 0 0 1 0.0214,-0.004049 0.29124581,0.29124581 0 0 1 0.021647,-0.002436 0.29124581,0.29124581 0 0 1 0.021766,-8.2392e-4 z" />
    <path
       id="path3047-7"
       style="fill:#a7aaad;fill-opacity:1;stroke-width:1.78107"
       d="M 0.86393587,2.8567391 C 0.58649258,2.9857978 0.3582828,3.2206922 0.2450693,3.5308423 0.0186429,4.1511422 0.33794304,4.8375544 0.95824249,5.0639806 1.5785431,5.2904068 2.2649495,4.9711105 2.4913758,4.3508096 2.6045888,4.0406595 2.9013571,3.2276578 2.9013571,3.2276578 c 0,0 -0.8130044,-0.2967736 -1.1231549,-0.4099867 C 1.4680526,2.7044583 1.1413785,2.7276805 0.86393587,2.8567391 Z M 1.0320318,3.2181025 c 0.00578,-0.00269 0.01159,-0.00531 0.017435,-0.00786 0.00583,-0.00255 0.011714,-0.00503 0.017617,-0.00744 0.00589,-0.00241 0.011832,-0.00475 0.017793,-0.00702 0.00596,-0.00227 0.01195,-0.00447 0.017965,-0.00659 0.00602,-0.00213 0.012057,-0.00418 0.018124,-0.00617 0.00606,-0.00198 0.012157,-0.00389 0.018274,-0.00574 0.00611,-0.00183 0.012259,-0.0036 0.018422,-0.0053 0.00616,-0.00169 0.012347,-0.00332 0.018555,-0.00486 0.0062,-0.00154 0.012441,-0.00301 0.01869,-0.00442 0.00624,-0.00141 0.012515,-0.00272 0.018802,-0.00396 0.00628,-0.00126 0.012592,-0.00242 0.018916,-0.00352 0.00632,-0.0011 0.012665,-0.00211 0.019021,-0.00306 0.00635,-9.517e-4 0.012725,-0.00181 0.019113,-0.00261 0.00639,-7.888e-4 0.012794,-0.00149 0.019209,-0.00214 0.00642,-6.376e-4 0.012842,-0.00119 0.019285,-0.00169 0.00644,-4.866e-4 0.012891,-8.8e-4 0.019355,-0.00122 0.00647,-2.808e-4 0.01294,-5.615e-4 0.019423,-7.366e-4 0.00649,-1.871e-4 0.012972,-2.432e-4 0.019473,-2.432e-4 0.0065,-1.5e-6 0.01301,3.87e-5 0.019526,2.432e-4 0.00652,1.873e-4 0.01304,3.745e-4 0.019565,7.105e-4 0.00653,2.808e-4 0.013058,7.105e-4 0.019594,0.00119 0.00653,4.867e-4 0.013075,0.00104 0.019618,0.00169 0.00655,6.376e-4 0.013092,0.00138 0.019639,0.00219 0.00655,8.083e-4 0.013093,0.0017 0.019639,0.00268 0.00655,9.712e-4 0.013096,0.00205 0.019643,0.00318 0.00655,0.00115 0.013093,0.00237 0.019633,0.00369 0.00655,0.00131 0.013084,0.00272 0.019619,0.0042 0.00654,0.00147 0.013067,0.00306 0.019593,0.00471 0.00653,0.00165 0.013047,0.00341 0.019562,0.00523 0.00652,0.00183 0.013022,0.00376 0.019523,0.00575 0.0065,0.002 0.01299,0.00409 0.019472,0.00628 0.00649,0.00218 0.01295,0.00445 0.019412,0.00681 l 0.7487674,0.2733272 c 0,0 -0.1978448,0.5420015 -0.2733206,0.748768 -0.00236,0.00647 -0.00478,0.012868 -0.0073,0.019232 -0.00251,0.00636 -0.00508,0.012676 -0.00774,0.01894 -0.00265,0.00626 -0.00538,0.01248 -0.00817,0.018643 -0.0028,0.00615 -0.00566,0.01227 -0.0086,0.01833 -0.00294,0.00606 -0.00594,0.012065 -0.00902,0.018024 -0.00307,0.00595 -0.00621,0.011859 -0.00943,0.01771 -0.00321,0.00585 -0.00649,0.01165 -0.00983,0.017396 -0.00334,0.00575 -0.00675,0.011436 -0.010217,0.017075 -0.00347,0.00564 -0.007,0.011218 -0.010601,0.016746 -0.00359,0.00553 -0.00726,0.011009 -0.010981,0.016427 -0.00372,0.00542 -0.0075,0.010783 -0.01135,0.016091 -0.00385,0.00531 -0.00775,0.01056 -0.01171,0.015755 -0.00396,0.0052 -0.00799,0.010337 -0.012063,0.01542 -0.00407,0.00508 -0.00822,0.010108 -0.012408,0.015077 -0.00419,0.00496 -0.00844,0.00988 -0.012741,0.014732 -0.00431,0.00485 -0.00867,0.00964 -0.013076,0.014377 -0.00441,0.00474 -0.00888,0.00941 -0.013395,0.014023 -0.00451,0.00462 -0.00908,0.00918 -0.013704,0.013672 -0.00462,0.00449 -0.0093,0.00893 -0.014016,0.013308 -0.00472,0.00437 -0.00949,0.00869 -0.014307,0.012942 -0.00482,0.00425 -0.00969,0.00844 -0.014598,0.012569 -0.0049,0.00413 -0.00987,0.0082 -0.014875,0.012202 -0.00499,0.004 -0.010055,0.00794 -0.01515,0.011823 -0.0051,0.00388 -0.010235,0.0077 -0.015416,0.011451 -0.00518,0.00376 -0.010405,0.00744 -0.015671,0.01106 -0.00526,0.00362 -0.010575,0.00718 -0.015922,0.010675 -0.00535,0.0035 -0.010731,0.00692 -0.016158,0.010282 -0.00542,0.00336 -0.010893,0.00666 -0.016395,0.00989 -0.0055,0.00323 -0.011043,0.00639 -0.016618,0.00949 -0.00557,0.0031 -0.011186,0.00613 -0.016833,0.00909 -0.00564,0.00297 -0.011326,0.00585 -0.017042,0.00868 -0.0057,0.00283 -0.011461,0.00559 -0.017241,0.00828 -0.00578,0.00269 -0.011596,0.0053 -0.017439,0.00785 -0.00583,0.00256 -0.011714,0.00503 -0.017617,0.00744 -0.0059,0.00241 -0.011832,0.00476 -0.017793,0.00702 -0.00596,0.00227 -0.011953,0.00447 -0.017967,0.00659 -0.00602,0.00213 -0.012055,0.00418 -0.018123,0.00617 -0.00606,0.00198 -0.012157,0.00389 -0.018274,0.00574 -0.00612,0.00183 -0.012261,0.0036 -0.018423,0.0053 -0.00616,0.00169 -0.012347,0.00332 -0.018555,0.00486 -0.00621,0.00154 -0.012441,0.00301 -0.01869,0.00442 -0.00624,0.00141 -0.012515,0.00272 -0.018802,0.00396 -0.00628,0.00126 -0.012593,0.00242 -0.018916,0.00352 -0.00632,0.0011 -0.012661,0.00212 -0.019019,0.00307 -0.00636,9.517e-4 -0.012729,0.00181 -0.019116,0.00261 -0.00639,7.887e-4 -0.012792,0.00149 -0.019208,0.00215 -0.00642,6.377e-4 -0.012845,0.00119 -0.019284,0.00169 -0.00644,4.866e-4 -0.012891,8.8e-4 -0.019354,0.00122 -0.00647,2.807e-4 -0.012938,5.613e-4 -0.019422,7.496e-4 -0.00649,1.871e-4 -0.012973,2.434e-4 -0.019475,2.434e-4 -0.0065,1.2e-6 -0.013011,-1.44e-4 -0.019526,-2.434e-4 -0.00652,-1.871e-4 -0.013039,-3.742e-4 -0.019566,-7.105e-4 -0.00653,-2.807e-4 -0.013058,-7.105e-4 -0.019594,-0.00119 -0.00653,-4.867e-4 -0.013074,-0.00104 -0.019618,-0.00169 -0.00655,-6.518e-4 -0.013093,-0.00136 -0.019639,-0.00219 -0.00655,-8.082e-4 -0.01309,-0.0017 -0.019638,-0.00268 -0.00655,-9.712e-4 -0.013096,-0.00205 -0.019643,-0.00318 -0.00655,-0.00115 -0.013092,-0.00237 -0.019634,-0.00369 -0.00655,-0.00131 -0.013084,-0.00272 -0.019619,-0.0042 -0.00653,-0.00147 -0.013067,-0.00306 -0.019594,-0.00471 -0.00653,-0.00165 -0.013044,-0.00341 -0.019558,-0.00523 -0.00652,-0.00183 -0.013026,-0.00376 -0.019525,-0.00576 -0.0065,-0.002 -0.01299,-0.00409 -0.019472,-0.00628 -0.00649,-0.00218 -0.012949,-0.00445 -0.01941,-0.00681 -0.00647,-0.00236 -0.012876,-0.0048 -0.019239,-0.0073 -0.00637,-0.00252 -0.012672,-0.00509 -0.018935,-0.00774 -0.00626,-0.00265 -0.012478,-0.00537 -0.018639,-0.00817 -0.00615,-0.0028 -0.012273,-0.00566 -0.018332,-0.0086 -0.00606,-0.00294 -0.012064,-0.00594 -0.018021,-0.00901 -0.005951,-0.00307 -0.0118661,-0.00621 -0.0177189,-0.00942 -0.005847,-0.00321 -0.0116425,-0.00649 -0.0173884,-0.00983 -0.005743,-0.00334 -0.0114384,-0.00675 -0.0170749,-0.010217 -0.005638,-0.00347 -0.0112246,-0.007 -0.0167529,-0.010605 -0.005528,-0.00359 -0.0109991,-0.00726 -0.0164198,-0.01098 -0.00541,-0.00371 -0.010784,-0.00751 -0.0160939,-0.011355 -0.005306,-0.00385 -0.0105656,-0.00774 -0.0157608,-0.011706 -0.005202,-0.00396 -0.010329,-0.00798 -0.0154108,-0.012062 -0.005078,-0.00407 -0.01011,-0.00822 -0.015077,-0.012406 -0.00496,-0.0042 -0.009881,-0.00845 -0.0147328,-0.012747 -0.00485,-0.00431 -0.009641,-0.00866 -0.0143763,-0.013071 -0.004739,-0.00442 -0.009416,-0.00888 -0.0140315,-0.013399 -0.004615,-0.00451 -0.009171,-0.00908 -0.0136664,-0.013706 -0.004491,-0.00462 -0.008932,-0.00929 -0.0133073,-0.014011 -0.004367,-0.00472 -0.00869,-0.00949 -0.0129409,-0.014307 -0.00425,-0.00482 -0.008445,-0.00968 -0.0125759,-0.014597 -0.004126,-0.0049 -0.008196,-0.00988 -0.0121998,-0.014883 -0.003996,-0.00499 -0.007949,-0.010053 -0.0118289,-0.015149 -0.003885,-0.0051 -0.00769,-0.010232 -0.011443,-0.015415 -0.003761,-0.00518 -0.007436,-0.010409 -0.011063,-0.015677 -0.003624,-0.00526 -0.007179,-0.010571 -0.0106734,-0.015915 -0.003499,-0.00534 -0.006924,-0.010736 -0.0102864,-0.016163 -0.00336,-0.00542 -0.006659,-0.01089 -0.009891,-0.016393 -0.003234,-0.0055 -0.006389,-0.011038 -0.009485,-0.016615 -0.003095,-0.00557 -0.00613,-0.01119 -0.009094,-0.016836 -0.002963,-0.00564 -0.005859,-0.011326 -0.008681,-0.017041 -0.002817,-0.00572 -0.00558,-0.011459 -0.00827,-0.017239 -0.002684,-0.00578 -0.005309,-0.011592 -0.00786,-0.017437 -0.002547,-0.00583 -0.005032,-0.011714 -0.007444,-0.017617 -0.002408,-0.00589 -0.004753,-0.011841 -0.007021,-0.017801 -0.002268,-0.00596 -0.004474,-0.011944 -0.006596,-0.017957 -0.002129,-0.00602 -0.004181,-0.012057 -0.006162,-0.018124 -0.001982,-0.00606 -0.003894,-0.012163 -0.005737,-0.018279 -0.001836,-0.00612 -0.003601,-0.012255 -0.005297,-0.018417 -0.00169,-0.00616 -0.003315,-0.012354 -0.004864,-0.018561 -0.001536,-0.00621 -0.003015,-0.012433 -0.004417,-0.018681 -0.001409,-0.00624 -0.002715,-0.012519 -0.003964,-0.018806 -0.001257,-0.00628 -0.002422,-0.01259 -0.003518,-0.018914 -0.001103,-0.00632 -0.002129,-0.01267 -0.003064,-0.019027 -9.5625e-4,-0.00635 -0.001815,-0.012727 -0.002603,-0.019114 -7.8873e-4,-0.00639 -0.001501,-0.012788 -0.002143,-0.019205 -6.3765e-4,-0.00642 -0.001194,-0.012841 -0.00169,-0.019281 -4.866e-4,-0.00645 -8.7932e-4,-0.012901 -0.001222,-0.019363 -2.8072e-4,-0.00647 -5.6129e-4,-0.012932 -7.47e-4,-0.019416 -1.8713e-4,-0.00649 -2.4331e-4,-0.01298 -2.4331e-4,-0.01948 -9.1e-7,-0.0065 3.929e-5,-0.013006 2.4331e-4,-0.019521 1.8718e-4,-0.00652 3.7431e-4,-0.013035 7.118e-4,-0.019563 2.8072e-4,-0.00653 7.1181e-4,-0.01306 0.001194,-0.019598 4.8661e-4,-0.00653 0.001047,-0.013075 0.00169,-0.019618 6.3757e-4,-0.00655 0.001368,-0.013089 0.002171,-0.019635 8.1023e-4,-0.00655 0.001703,-0.013099 0.00268,-0.019647 9.7646e-4,-0.00655 0.002045,-0.013097 0.003182,-0.019643 0.001145,-0.00655 0.002366,-0.013089 0.003685,-0.01963 0.001312,-0.00655 0.002721,-0.013083 0.004208,-0.019618 0.001501,-0.00653 0.00305,-0.013067 0.004711,-0.019592 0.001647,-0.00653 0.003406,-0.013049 0.005228,-0.019564 0.001836,-0.00652 0.003755,-0.01302 0.005758,-0.01952 0.002003,-0.0065 0.004097,-0.012989 0.006282,-0.01947 0.002178,-0.00649 0.004453,-0.012951 0.006819,-0.019414 0.00236,-0.00647 0.004788,-0.012875 0.007301,-0.019236 0.002506,-0.00636 0.005081,-0.012678 0.007737,-0.01894 0.002652,-0.00626 0.005388,-0.012474 0.008177,-0.018638 0.002797,-0.00615 0.00566,-0.012275 0.008594,-0.018336 0.002936,-0.00606 0.005945,-0.012066 0.009017,-0.018024 0.003068,-0.00595 0.006217,-0.01186 0.009425,-0.01771 0.003208,-0.00585 0.006481,-0.01165 0.009825,-0.017396 0.00334,-0.00574 0.006749,-0.011438 0.0102175,-0.017076 0.003472,-0.00564 0.007005,-0.011217 0.0106025,-0.016744 0.003592,-0.00553 0.007263,-0.011007 0.0109823,-0.016428 0.003722,-0.00542 0.007505,-0.010783 0.0113498,-0.016089 0.003846,-0.00531 0.007746,-0.01056 0.011709,-0.015757 0.003963,-0.0052 0.007986,-0.010337 0.0120655,-0.015417 0.004074,-0.00508 0.008216,-0.01011 0.0124077,-0.015077 0.004191,-0.00496 0.008441,-0.00987 0.0127434,-0.014724 0.004309,-0.00485 0.008664,-0.00965 0.0130746,-0.014383 0.004419,-0.00474 0.008877,-0.00941 0.0133953,-0.014023 0.004511,-0.00461 0.009082,-0.00917 0.0137023,-0.01367 0.004622,-0.00449 0.009296,-0.00893 0.0140184,-0.013308 0.004719,-0.00437 0.00949,-0.00868 0.0143091,-0.012936 0.004817,-0.00425 0.009684,-0.00845 0.0145966,-0.012576 0.004902,-0.00412 0.009868,-0.0082 0.0148749,-0.012204 0.004993,-0.004 0.0100559,-0.00794 0.0151507,-0.011823 0.005104,-0.00388 0.0102352,-0.0077 0.015416,-0.011451 0.005176,-0.00376 0.010404,-0.00744 0.0156715,-0.011061 0.00526,-0.00362 0.0105761,-0.00718 0.0159231,-0.010675 0.005345,-0.0035 0.0107312,-0.00692 0.0161577,-0.010283 0.005417,-0.00336 0.0108928,-0.00666 0.0163944,-0.00989 0.005502,-0.00323 0.0110421,-0.00641 0.0166179,-0.00949 0.005573,-0.00308 0.0111862,-0.00612 0.0168324,-0.00909 0.005645,-0.00297 0.0113263,-0.00585 0.0170423,-0.00868 0.00572,-0.00283 0.011467,-0.00558 0.017246,-0.00827 z" />
  </g>
</svg>
